# Blender v3.0.0 OBJ File: 'Room_render.blend'
# www.blender.org
mtllib wallkitchen.mtl
o wallkitchen_Plane.005
v -1.802580 -0.030599 1.180854
v -1.751528 3.061534 1.180854
v -1.787626 -0.030599 2.572281
v -1.751528 3.061534 2.608379
v -6.261013 -0.030599 2.572281
v -6.297112 3.061534 2.608379
v -6.246058 -0.030599 -0.382480
v -6.297112 3.061534 -0.382480
v -6.261013 -0.030599 -3.094926
v -1.787627 -0.030599 -3.094926
v -1.751529 3.061534 -3.131025
v -1.802581 -0.030599 -2.563382
v -1.751529 3.061534 -2.563382
v -1.751527 1.734291 1.180854
v -1.751527 1.734291 2.608379
v -6.297112 1.734291 2.608379
v -6.297112 1.734291 -0.382480
v -6.297112 1.734291 -3.131025
v -1.751528 1.734291 -3.131025
v -1.751528 1.734291 -2.563382
v -6.297112 3.061534 -1.993837
v -6.246058 -0.030599 -1.993837
v -6.297112 3.061534 -3.131025
v -6.297112 1.734291 -1.993837
v -1.751528 3.471817 1.180854
v -1.751528 3.471817 2.608379
v -6.297112 3.471817 2.608379
v -1.751529 3.471817 -2.563382
v -6.297112 3.471817 -3.131025
v -6.297112 3.471817 -1.993837
v -1.761515 3.471817 2.578773
v -6.252400 3.654911 2.563668
v -6.222571 3.712714 2.533839
v -6.222571 3.837336 -0.382480
v -6.267506 3.471817 2.578774
v -6.267506 3.471817 -0.382480
v -6.252400 3.654911 -0.382480
v -6.222571 3.712714 -0.382480
v -6.297112 3.471817 -0.382480
v -6.222571 3.837336 -1.993837
v -6.267506 3.471817 -1.993837
v -6.252399 3.654911 -1.993837
v -6.222571 3.712714 -1.993837
v -6.267506 3.471817 -3.101419
v -6.252399 3.654911 -3.086313
v -1.826068 3.837336 1.180854
v -1.781133 3.471817 1.180854
v -1.796239 3.654911 1.180854
v -1.761515 3.654911 2.563668
v -1.826068 3.712713 1.180854
v -1.761515 3.712713 2.533839
v -1.826068 3.837336 -2.563382
v -1.781133 3.471817 -2.563382
v -1.796239 3.654911 -2.563382
v -1.826068 3.712713 -2.563382
v -1.826068 3.837336 -3.056484
v -1.781133 3.471817 -3.101419
v -1.796239 3.654911 -3.086313
v -1.826068 3.712713 -3.056484
v -1.751529 3.471817 -3.131025
v -6.222571 3.837336 -3.056484
v -6.222571 3.712713 -3.056484
v -1.751528 3.061534 1.292646
v -1.802580 -0.030599 1.292646
v -1.751527 1.734291 1.292646
v -1.751528 3.471817 1.292646
v -1.761515 3.837336 1.283530
v -1.761515 3.654911 1.287178
v -1.761515 3.712713 1.283530
v -1.761515 3.471817 1.289026
v -1.761515 3.837336 2.533839
v -6.222571 3.837336 2.533839
v -6.297112 0.062887 -3.131025
v -1.751528 0.062887 -3.131025
v -1.751528 0.062887 -2.563382
v -6.297112 0.062887 -1.993837
v -1.751527 0.062887 1.180854
v -1.751527 0.062887 2.608379
v -6.297112 0.062887 2.608379
v -6.297112 0.062887 -0.382480
v -1.751527 0.062887 1.292646
vt 0.900108 0.928805
vt 0.889488 0.928812
vt 0.890123 0.801222
vt 0.900115 0.797623
vt 0.429541 0.661016
vt 0.429541 0.621269
vt 0.557005 0.621269
vt 0.557005 0.661016
vt 0.897691 0.334412
vt 0.907682 0.338010
vt 0.907683 0.784007
vt 0.897691 0.787607
vt 0.441350 0.330769
vt 0.441350 0.291023
vt 0.881710 0.291023
vt 0.881710 0.330769
vt 0.781529 0.676185
vt 0.791520 0.679785
vt 0.792150 0.974387
vt 0.781529 0.974384
vt 0.000989 0.991261
vt 0.000989 0.951515
vt 0.290734 0.951515
vt 0.290734 0.991262
vt 0.446836 0.951515
vt 0.446836 0.991262
vt 0.886922 0.334397
vt 0.896913 0.337996
vt 0.896913 0.784007
vt 0.886922 0.787607
vt 0.000989 0.330769
vt 0.000989 0.291023
vt 0.441350 0.291023
vt 0.441350 0.330769
vt 0.900114 0.997358
vt 0.890121 0.993758
vt 0.889492 0.940736
vt 0.900114 0.940753
vt 0.000990 0.661016
vt 0.000990 0.621269
vt 0.055981 0.621269
vt 0.055981 0.661016
vt 0.418711 0.661016
vt 0.418711 0.621269
vt 0.000989 0.822936
vt 0.290734 0.822936
vt 0.441350 0.162444
vt 0.881710 0.162444
vt 0.429542 0.492691
vt 0.557005 0.492691
vt 0.000989 0.492690
vt 0.055981 0.492690
vt 0.000989 0.162444
vt 0.441350 0.162444
vt 0.911508 0.911004
vt 0.900888 0.911012
vt 0.901517 0.801223
vt 0.911508 0.797624
vt 0.557003 0.951515
vt 0.557003 0.991262
vt 0.446836 0.822936
vt 0.557003 0.822936
vt 0.932854 0.785229
vt 0.915820 0.785230
vt 0.915794 0.367459
vt 0.932828 0.368858
vt 0.940073 0.785250
vt 0.940047 0.371642
vt 0.951627 0.785249
vt 0.951602 0.371641
vt 0.908460 0.787625
vt 0.908460 0.364647
vt 0.810445 0.413611
vt 0.827416 0.412283
vt 0.830070 0.685920
vt 0.812074 0.686294
vt 0.804448 0.416382
vt 0.805705 0.686337
vt 0.792911 0.416407
vt 0.793504 0.686376
vt 0.832166 0.407474
vt 0.833677 0.685867
vt 0.835311 0.855176
vt 0.832205 0.855189
vt 0.812966 0.855072
vt 0.806152 0.855065
vt 0.793100 0.855036
vt 0.812789 0.969595
vt 0.805975 0.966457
vt 0.792912 0.966434
vt 0.835143 0.974318
vt 0.832046 0.971211
vt 0.858622 0.839974
vt 0.879222 0.841417
vt 0.870960 0.967715
vt 0.853636 0.965696
vt 0.852800 0.839542
vt 0.848081 0.962557
vt 0.840383 0.839683
vt 0.835951 0.962112
vt 0.877126 0.826391
vt 0.881751 0.826293
vt 0.880827 0.842132
vt 0.858260 0.827955
vt 0.857683 0.479586
vt 0.875952 0.480057
vt 0.851943 0.827460
vt 0.840089 0.827697
vt 0.838641 0.479846
vt 0.851031 0.479648
vt 0.879958 0.480104
vt 0.849359 0.426110
vt 0.856387 0.422519
vt 0.835950 0.426790
vt 0.876520 0.419441
vt 0.879853 0.416097
vt 0.959787 0.364715
vt 0.976810 0.366111
vt 0.976889 0.778996
vt 0.959868 0.780399
vt 0.983969 0.368892
vt 0.995501 0.368889
vt 0.995589 0.775729
vt 0.984056 0.775732
vt 0.952404 0.361886
vt 0.952404 0.787701
vt 0.872757 0.974356
vt 0.418712 0.492691
vt 0.900115 0.939951
vt 0.889495 0.939958
vt 0.446836 0.661016
vt 0.557003 0.661016
vt 0.000989 0.330769
vt 0.055981 0.330769
vt 0.000989 0.000524
vt 0.441350 0.000524
vt 0.418712 0.330772
vt 0.429542 0.330772
vt 0.000990 0.661016
vt 0.290734 0.661016
vt 0.441350 0.000524
vt 0.881710 0.000524
vt 0.557005 0.330772
vn -0.8927 0.4507 0.0026
vn -0.8926 0.4508 0.0026
vn -0.9067 0.4216 0.0052
vn -1.0000 0.0000 0.0000
vn 0.0000 0.3602 -0.9329
vn 0.0000 0.0000 -1.0000
vn 0.9065 0.4221 0.0023
vn 1.0000 0.0000 -0.0000
vn -0.0000 0.3602 0.9329
vn 0.0000 0.0000 1.0000
vn -0.9072 0.4205 -0.0123
vn 0.9068 0.4215 -0.0061
vn -0.0000 -0.0822 -0.9966
vn -0.0000 -0.4586 -0.8887
vn 0.0000 -1.0000 0.0000
vn 0.9966 -0.0822 -0.0000
vn 0.8887 -0.4586 -0.0000
vn -0.9880 0.0056 0.1546
vn -0.9933 -0.0259 0.1124
vn -0.9706 -0.0318 0.2386
vn -0.9609 0.0000 0.2770
vn -0.9926 -0.0819 0.0897
vn -0.9553 -0.2250 0.1917
vn -0.9966 -0.0822 0.0000
vn -0.9396 -0.2207 0.2616
vn -0.8887 -0.4586 0.0000
vn 0.0000 -0.0822 0.9966
vn -0.0000 -0.4586 0.8887
vn -0.8777 0.4793 0.0000
usemtl M_wallskitchen
s 1
f 81/1/1 64/2/2 3/3/3 78/4/3
f 66/5/4 63/6/4 4/7/4 26/8/4
f 78/9/5 3/10/5 5/11/5 79/12/5
f 26/13/6 4/14/6 6/15/6 27/16/6
f 79/17/7 5/18/7 7/19/7 80/20/7
f 27/21/8 6/22/8 8/23/8 39/24/8
f 39/24/8 8/23/8 21/25/8 30/26/8
f 73/27/9 9/28/9 10/29/9 74/30/9
f 29/31/10 23/32/10 11/33/10 60/34/10
f 74/35/11 10/36/11 12/37/11 75/38/11
f 60/39/4 11/40/4 13/41/4 28/42/4
f 25/43/4 28/42/4 13/41/4 2/44/4
f 6/22/8 16/45/8 17/46/8 8/23/8
f 4/14/6 15/47/6 16/48/6 6/15/6
f 63/6/4 65/49/4 15/50/4 4/7/4
f 11/40/4 19/51/4 20/52/4 13/41/4
f 23/32/10 18/53/10 19/54/10 11/33/10
f 76/55/12 22/56/12 9/57/12 73/58/12
f 30/26/8 21/25/8 23/59/8 29/60/8
f 21/25/8 24/61/8 18/62/8 23/59/8
f 49/63/13 31/64/13 35/65/13 32/66/13
f 51/67/14 49/63/14 32/66/14 33/68/14
f 71/69/6 51/67/6 33/68/6 72/70/6
f 35/65/15 31/64/15 26/71/15 27/72/15
f 32/73/16 35/74/16 36/75/16 37/76/16
f 33/77/17 32/73/17 37/76/17 38/78/17
f 72/79/8 33/77/8 38/78/8 34/80/8
f 36/75/15 35/74/15 27/81/15 39/82/15
f 36/75/15 39/82/15 30/83/15 41/84/15
f 37/76/16 36/75/16 41/84/16 42/85/16
f 34/80/8 38/78/8 43/86/8 40/87/8
f 38/78/17 37/76/17 42/85/17 43/86/17
f 43/86/17 42/85/17 45/88/17 62/89/17
f 40/87/8 43/86/8 62/89/8 61/90/8
f 41/84/15 30/83/15 29/91/15 44/92/15
f 42/85/16 41/84/16 44/92/16 45/88/16
f 68/93/18 70/94/19 31/95/4 49/96/4
f 69/97/20 68/93/18 49/96/4 51/98/4
f 67/99/21 69/97/20 51/98/4 71/100/4
f 70/94/15 47/101/15 25/102/15 66/103/15
f 47/101/22 48/104/23 54/105/24 53/106/24
f 50/107/25 46/108/21 52/109/4 55/110/4
f 48/104/23 50/107/25 55/110/26 54/105/26
f 25/102/15 47/101/15 53/106/15 28/111/15
f 54/105/26 55/110/26 59/112/26 58/113/26
f 55/110/4 52/109/4 56/114/4 59/112/4
f 28/111/15 53/106/15 57/115/15 60/116/15
f 53/106/24 54/105/24 58/113/24 57/115/24
f 57/117/27 58/118/27 45/119/27 44/120/27
f 59/121/10 56/122/10 61/123/10 62/124/10
f 58/118/28 59/121/28 62/124/28 45/119/28
f 60/125/15 57/117/15 44/120/15 29/126/15
f 31/95/15 70/94/15 66/103/15 26/127/15
f 50/107/25 69/97/20 67/99/21
f 48/104/23 68/93/18 69/97/20
f 48/104/23 47/101/22 70/94/19
f 2/44/4 14/128/4 65/49/4 63/6/4
f 25/43/4 2/44/4 63/6/4 66/5/4
f 77/129/29 1/130/29 64/2/2 81/1/1
f 50/107/25 48/104/23 69/97/20
f 68/93/18 48/104/23 70/94/19
f 46/108/21 50/107/25 67/99/21
f 24/61/8 76/131/8 73/132/8 18/62/8
f 19/51/4 74/133/4 75/134/4 20/52/4
f 18/53/10 73/135/10 74/136/10 19/54/10
f 14/128/4 77/137/4 81/138/4 65/49/4
f 16/45/8 79/139/8 80/140/8 17/46/8
f 15/47/6 78/141/6 79/142/6 16/48/6
f 65/49/4 81/138/4 78/143/4 15/50/4
