# Blender v3.0.0 OBJ File: 'Room_render.blend'
# www.blender.org
mtllib floorceiling.mtl
o floorceiling_Plane.008
v -1.787626 -0.030599 1.180854
v -1.787626 -0.030599 -2.563381
v -6.312831 -0.030599 1.180854
v -6.312831 -0.030599 -2.563381
v -1.787626 -0.030599 2.572281
v -6.312831 -0.030599 2.572281
v -1.787626 -0.030599 -3.094926
v -6.312831 -0.030599 -3.094926
v -1.787626 -0.030599 -2.217475
v -6.312831 -0.030599 -2.217475
v -1.688376 -0.030599 1.180854
v -1.688376 -0.030599 -2.563381
v -1.688376 -0.030599 -2.217475
v -1.826068 3.837336 1.180854
v -1.826068 3.837336 -2.563382
v -1.826068 3.837336 -3.056484
v -6.222571 3.837336 -3.056484
v -1.761515 3.837336 1.283530
v -6.222571 3.837336 1.180854
v -6.222571 3.837336 -2.563382
v -6.222571 3.837336 1.283530
v -1.761515 3.837336 2.533839
v -6.222571 3.837336 2.533839
v -1.558515 -0.030599 1.322147
v -1.558515 -0.030599 -2.679618
v -1.751528 -0.030599 1.322147
v -1.751528 -0.030599 -2.679618
v -1.523035 -0.030599 1.144999
v -1.472616 -0.030599 1.195418
v -1.487383 -0.030599 1.159767
v -1.472616 -0.030599 1.271728
v -1.523035 -0.030599 1.322147
v -1.487383 -0.030599 1.307380
v -1.835246 -0.030599 -2.629205
v -1.784827 -0.030599 -2.679620
v -1.820479 -0.030599 -2.664855
v -1.784827 -0.030599 -2.502475
v -1.835246 -0.030599 -2.552893
v -1.820479 -0.030599 -2.517242
v -1.472616 -0.030599 -2.552889
v -1.523035 -0.030599 -2.502470
v -1.487384 -0.030599 -2.517238
v -1.523035 -0.030599 -2.679618
v -1.472616 -0.030599 -2.629199
v -1.487383 -0.030599 -2.664851
v -1.835245 -0.030599 1.195414
v -1.784826 -0.030599 1.144995
v -1.820477 -0.030599 1.159762
v -1.784826 -0.030599 1.322147
v -1.835245 -0.030599 1.271727
v -1.820477 -0.030599 1.307379
v -1.558515 3.201124 -0.678737
v -1.751528 3.201124 -0.678737
v -1.523035 3.201124 -0.678737
v -1.487383 3.186357 -0.678737
v -1.472616 3.150705 -0.678737
v -1.523035 3.023976 -0.678737
v -1.487384 3.038743 -0.678737
v -1.472616 3.074395 -0.678737
v -1.784826 3.023976 -0.678737
v -1.820478 3.038743 -0.678737
v -1.835245 3.074395 -0.678737
v -1.784826 3.201124 -0.678737
v -1.820478 3.186357 -0.678737
v -1.835245 3.150706 -0.678737
v -1.558515 1.547302 -2.679619
v -1.751528 1.547302 -2.679619
v -1.784827 1.547302 -2.679620
v -1.820479 1.547302 -2.664855
v -1.835246 1.547302 -2.629204
v -1.784827 1.547302 -2.502475
v -1.820479 1.547302 -2.517242
v -1.835246 1.547302 -2.552893
v -1.523035 1.547302 -2.502470
v -1.487384 1.547302 -2.517237
v -1.472616 1.547302 -2.552889
v -1.523035 1.547302 -2.679619
v -1.487383 1.547302 -2.664851
v -1.472616 1.547302 -2.629200
v -1.558515 1.547302 1.322147
v -1.751528 1.547302 1.322147
v -1.523035 1.547302 1.144999
v -1.487383 1.547302 1.159766
v -1.472616 1.547302 1.195418
v -1.472616 1.547302 1.271728
v -1.487383 1.547302 1.307379
v -1.523035 1.547302 1.322147
v -1.784826 1.547302 1.144995
v -1.820477 1.547302 1.159762
v -1.835245 1.547302 1.195414
v -1.835245 1.547302 1.271727
v -1.820477 1.547302 1.307379
v -1.784826 1.547302 1.322147
v -1.558515 3.126005 1.322146
v -1.558515 3.201124 1.247027
v -1.558515 3.201124 -2.604500
v -1.558515 3.126005 -2.679619
v -1.751528 3.201124 1.247027
v -1.751528 3.126005 1.322146
v -1.751528 3.126005 -2.679619
v -1.751528 3.201124 -2.604500
v -1.523035 2.947551 1.144999
v -1.523035 3.023976 1.068573
v -1.472616 3.074395 1.117436
v -1.472616 2.996414 1.195418
v -1.487383 3.038743 1.082683
v -1.487383 2.961660 1.159766
v -1.784827 2.947551 -2.502475
v -1.784827 3.023976 -2.426049
v -1.835246 3.074395 -2.474912
v -1.835246 2.996413 -2.552893
v -1.820478 3.038743 -2.440158
v -1.820478 2.961660 -2.517242
v -1.523035 3.023976 -2.426044
v -1.523035 2.947550 -2.502470
v -1.472616 2.996413 -2.552889
v -1.472616 3.074395 -2.474907
v -1.487384 2.961660 -2.517237
v -1.487384 3.038743 -2.440154
v -1.523035 3.201124 1.246685
v -1.523035 3.125663 1.322146
v -1.472616 3.072947 1.271728
v -1.472616 3.150705 1.193970
v -1.487383 3.109928 1.307379
v -1.487383 3.186357 1.230950
v -1.472616 3.150705 -2.551442
v -1.472616 3.072947 -2.629200
v -1.523035 3.125663 -2.679619
v -1.523035 3.201124 -2.604157
v -1.487383 3.186357 -2.588423
v -1.487383 3.109928 -2.664851
v -1.784826 3.023976 1.068569
v -1.784826 2.947551 1.144994
v -1.835245 2.996413 1.195414
v -1.835245 3.074395 1.117432
v -1.820477 2.961660 1.159762
v -1.820477 3.038743 1.082678
v -1.835246 3.072948 -2.629204
v -1.835246 3.150706 -2.551446
v -1.784827 3.201124 -2.604159
v -1.784827 3.125663 -2.679620
v -1.820478 3.109928 -2.664855
v -1.820478 3.186357 -2.588426
v -1.784826 3.125663 1.322146
v -1.784826 3.201124 1.246685
v -1.835245 3.150706 1.193968
v -1.835245 3.072948 1.271726
v -1.820477 3.109929 1.307379
v -1.820477 3.186357 1.230950
vt 0.011809 0.096963
vt 0.011809 0.059109
vt 0.507026 0.059110
vt 0.507026 0.096965
vt 0.011808 0.468864
vt 0.507026 0.468863
vt 0.507026 0.621135
vt 0.011808 0.621135
vt 0.011809 0.000939
vt 0.507026 0.000941
vt 0.000946 0.468864
vt 0.000948 0.096963
vt 0.000948 0.059109
vt 0.515367 0.616164
vt 0.515367 0.561836
vt 0.999756 0.561836
vt 0.999756 0.616163
vt 0.515367 0.149311
vt 0.999756 0.149311
vt 0.508254 0.137998
vt 0.999756 0.137999
vt 0.508255 0.000244
vt 0.999756 0.000244
vt 0.510627 0.634098
vt 0.518220 0.642697
vt 0.350471 0.642318
vt 0.350454 0.633930
vt 0.020069 0.678159
vt 0.212571 0.678158
vt 0.212571 0.682410
vt 0.018514 0.682411
vt 0.352854 0.753917
vt 0.352817 0.750008
vt 0.526741 0.750024
vt 0.526741 0.753933
vt 0.212571 0.686661
vt 0.014685 0.686662
vt 0.589347 0.712898
vt 0.597779 0.721306
vt 0.391458 0.721307
vt 0.391458 0.712899
vt 0.700594 0.750039
vt 0.700593 0.753949
vt 0.688880 0.754771
vt 0.688842 0.758440
vt 0.514954 0.758457
vt 0.514953 0.754788
vt 0.176426 0.642379
vt 0.176438 0.633963
vt 0.957153 0.632564
vt 0.964746 0.641162
vt 0.796993 0.640783
vt 0.796976 0.632396
vt 0.410465 0.686661
vt 0.418897 0.695068
vt 0.212571 0.695069
vt 0.341100 0.744421
vt 0.341137 0.740735
vt 0.552291 0.740701
vt 0.552291 0.744387
vt 0.341137 0.739878
vt 0.341099 0.735970
vt 0.553222 0.735969
vt 0.553222 0.739879
vt 0.622950 0.640844
vt 0.622963 0.632428
vt 0.341096 0.758474
vt 0.341095 0.754806
vt 0.976001 0.676637
vt 0.976001 0.705480
vt 0.783490 0.705480
vt 0.783490 0.676637
vt 0.796975 0.624012
vt 0.951060 0.623941
vt 0.953286 0.628122
vt 0.796975 0.628263
vt 0.796997 0.649432
vt 0.622945 0.649357
vt 0.622947 0.645101
vt 0.796996 0.645049
vt 0.350474 0.646584
vt 0.521734 0.646880
vt 0.523882 0.650966
vt 0.350475 0.650966
vt 0.601854 0.725558
vt 0.391458 0.725558
vt 0.590978 0.705480
vt 0.590978 0.676637
vt 0.391458 0.704396
vt 0.583964 0.704396
vt 0.585518 0.708647
vt 0.391458 0.708648
vt 0.181052 0.725560
vt 0.185126 0.721308
vt 0.544719 0.650330
vt 0.698877 0.650386
vt 0.698878 0.654639
vt 0.542509 0.654538
vt 0.391458 0.729810
vt 0.179318 0.729811
vt 0.872949 0.650255
vt 0.872953 0.654512
vt 0.872956 0.658769
vt 0.698879 0.658774
vt 0.405081 0.678158
vt 0.406636 0.682409
vt 0.603588 0.729810
vt 0.029688 0.651856
vt 0.183813 0.651909
vt 0.183814 0.656161
vt 0.027507 0.656077
vt 0.968261 0.645345
vt 0.357874 0.651789
vt 0.357877 0.656046
vt 0.357881 0.660303
vt 0.183815 0.660295
vt 0.183798 0.668684
vt 0.357895 0.668722
vt 0.357898 0.672980
vt 0.183795 0.672951
vt 0.357900 0.677238
vt 0.183792 0.677336
vt 0.012478 0.673281
vt 0.010338 0.677336
vt 0.970408 0.649432
vt 0.350453 0.625547
vt 0.504534 0.625476
vt 0.506760 0.629657
vt 0.350453 0.629798
vt 0.016030 0.669050
vt 0.006253 0.695069
vt 0.796864 0.735146
vt 0.796864 0.706303
vt 0.951137 0.706303
vt 0.951137 0.735146
vt 0.193558 0.712900
vt 0.197388 0.708648
vt 0.698861 0.671430
vt 0.527601 0.671717
vt 0.531127 0.667498
vt 0.698864 0.667163
vt 0.698859 0.675815
vt 0.525364 0.675815
vt 0.166426 0.730633
vt 0.166426 0.759476
vt 0.012152 0.759476
vt 0.012152 0.730633
vt 0.763444 0.740735
vt 0.763482 0.744421
vt 0.198942 0.704397
vt 0.872974 0.671446
vt 0.872971 0.667188
vt 0.872977 0.675704
vt 0.538763 0.658923
vt 0.622965 0.628173
vt 0.622968 0.623917
vt 0.212571 0.699320
vt 0.002178 0.699322
vt 0.212572 0.703572
vt 0.000445 0.703573
vt 0.341096 0.749185
vt 0.341095 0.745276
vt 0.514934 0.745260
vt 0.514935 0.749169
vt 0.876413 0.617020
vt 0.876413 0.620689
vt 0.702570 0.620672
vt 0.702571 0.617003
vt 0.623017 0.735146
vt 0.623017 0.706303
vt 0.340273 0.730633
vt 0.340273 0.759476
vt 0.424706 0.703573
vt 0.422972 0.699320
vt 0.023676 0.660479
vt 0.176423 0.646635
vt 0.176420 0.650892
vt 0.176441 0.629707
vt 0.176443 0.625451
vt 0.528668 0.620655
vt 0.528631 0.616986
vt 0.688868 0.745244
vt 0.688831 0.749153
vt 0.514258 0.618680
vt 0.516883 0.622347
vt 0.520174 0.626588
vt 0.977637 0.639056
vt 0.980128 0.642893
vt 0.974142 0.634109
vt 0.515684 0.668906
vt 0.518319 0.665083
vt 0.531111 0.640590
vt 0.533602 0.644427
vt 0.521872 0.660346
vt 0.527615 0.635643
vt 0.960785 0.617145
vt 0.963410 0.620812
vt 0.966700 0.625054
vt 0.532761 0.647122
vt 0.535285 0.643729
vt 0.529279 0.651428
vt 0.017597 0.648788
vt 0.020088 0.645335
vt 0.014282 0.652975
vt 0.003186 0.666512
vt 0.006803 0.661805
vt 0.000406 0.670519
vt 0.000244 0.759476
vt 0.000244 0.730633
vt 0.963045 0.706303
vt 0.963045 0.735146
vt 0.341097 0.753949
vt 0.341113 0.750040
vt 0.516911 0.620689
vt 0.516927 0.617020
vt 0.700574 0.745275
vt 0.700590 0.749185
vt 0.700584 0.754805
vt 0.700600 0.758474
vt 0.765430 0.735969
vt 0.765392 0.739879
vn 0.0000 1.0000 0.0000
vn 0.0000 -1.0000 0.0000
vn 0.9935 -0.0503 -0.1017
vn 0.9795 0.0495 0.1952
vn 0.9808 0.0000 0.1951
vn 0.9808 0.0000 -0.1951
vn -0.4631 -0.8356 0.2954
vn -0.3827 -0.9239 -0.0000
vn -0.7071 -0.7071 0.0000
vn -0.8113 -0.5451 0.2116
vn 0.0037 0.3807 0.9247
vn 0.0037 0.3847 0.9230
vn -0.0000 0.0000 1.0000
vn -0.9808 -0.1951 0.0000
vn -0.9935 -0.1017 0.0503
vn 0.9935 -0.1017 0.0503
vn 0.9795 0.1952 -0.0495
vn 0.9808 0.1951 -0.0000
vn 0.9808 -0.1951 -0.0000
vn -0.0040 0.3848 0.9230
vn -0.0039 0.3805 0.9248
vn -0.9935 -0.0503 0.1017
vn -0.9795 0.0495 -0.1952
vn -0.9808 0.0000 -0.1951
vn -0.9808 0.0000 0.1951
vn -0.9935 -0.1017 -0.0503
vn -0.9795 0.1952 0.0495
vn -0.9808 0.1951 0.0000
vn -0.0039 0.9230 -0.3848
vn -0.0039 0.9248 -0.3806
vn 0.0037 0.9247 -0.3807
vn 0.0037 0.9230 -0.3847
vn 0.0000 -0.9239 -0.3827
vn -0.3827 0.0000 0.9239
vn -0.4631 -0.2954 0.8356
vn -0.8113 -0.2116 0.5451
vn -0.7071 0.0000 0.7071
vn -0.3826 0.0000 -0.9239
vn -0.7071 0.0000 -0.7071
vn 0.7071 0.0000 0.7071
vn 0.7289 0.2383 0.6418
vn 0.4900 0.3692 0.7897
vn 0.3827 0.0000 0.9239
vn 0.7289 0.6418 -0.2383
vn 0.7071 0.7071 -0.0000
vn -0.0000 -0.9239 0.3827
vn 0.3827 -0.9239 0.0000
vn 0.4631 -0.8356 0.2954
vn 0.8112 -0.5451 0.2116
vn 0.7071 -0.7071 -0.0000
vn 0.7289 0.6418 0.2383
vn 0.9795 0.1952 0.0495
vn 0.4630 -0.2954 0.8356
vn 0.8112 -0.2116 0.5451
vn 0.3827 0.9239 0.0000
vn 0.4900 0.7897 0.3692
vn -0.4631 -0.8356 -0.2954
vn -0.8112 -0.5451 -0.2116
vn 0.4900 0.7897 -0.3692
vn -0.4631 -0.2954 -0.8356
vn -0.3827 -0.0000 -0.9239
vn -0.8113 -0.2116 -0.5451
vn -0.7289 0.2383 -0.6418
vn -0.7289 0.2383 0.6418
vn -0.4900 0.3692 0.7897
vn -0.4900 0.3692 -0.7897
vn 0.3827 -0.0000 -0.9239
vn 0.4631 -0.2954 -0.8356
vn 0.8113 -0.2116 -0.5451
vn 0.7071 -0.0000 -0.7071
vn -0.9795 0.0495 0.1952
vn -0.9795 0.1952 -0.0495
vn -0.0000 -0.3827 0.9239
vn 0.9935 -0.1017 -0.0503
vn 0.8113 -0.5451 -0.2116
vn 0.7289 0.2383 -0.6418
vn 0.9795 0.0495 -0.1952
vn 0.4900 0.3692 -0.7896
vn 0.0000 -0.0000 -1.0000
vn 0.0000 -0.3827 -0.9239
vn -0.0039 0.9248 0.3805
vn -0.0040 0.9230 0.3848
vn 0.4631 -0.8356 -0.2954
vn 0.9935 -0.0503 0.1017
vn -0.7071 0.7071 0.0000
vn -0.7289 0.6418 -0.2383
vn -0.3827 0.9239 0.0000
vn -0.4900 0.7897 -0.3692
vn 0.0001 -0.0000 -1.0000
vn -0.4900 0.7897 0.3692
vn -0.7289 0.6418 0.2383
vn -0.9935 -0.0503 -0.1017
vn -0.0039 0.3805 -0.9248
vn -0.0039 0.3848 -0.9230
vn 0.0037 0.3847 -0.9230
vn 0.0037 0.3807 -0.9247
vn 0.0037 0.9247 0.3807
vn 0.0037 0.9230 0.3847
usemtl M_floorceiling
s off
f 9/1/1 2/2/1 4/3/1 10/4/1
f 1/5/1 3/6/1 6/7/1 5/8/1
f 4/3/1 2/2/1 7/9/1 8/10/1
f 1/5/1 9/1/1 10/4/1 3/6/1
f 9/1/1 1/5/1 11/11/1 13/12/1
f 2/2/1 9/1/1 13/12/1 12/13/1
s 1
f 16/14/2 15/15/2 20/16/2 17/17/2
f 15/15/2 14/18/2 19/19/2 20/16/2
f 19/19/2 14/18/2 18/20/2 21/21/2
f 21/21/2 18/20/2 22/22/2 23/23/2
f 105/24/3 122/25/4 85/26/5 84/27/6
f 109/28/7 60/29/8 61/30/9 112/31/10
f 121/32/11 94/33/12 80/34/13 87/35/13
f 112/31/10 61/30/9 62/36/14 110/37/15
f 117/38/16 126/39/17 56/40/18 59/41/19
f 87/35/13 80/34/13 24/42/13 32/43/13
f 99/44/20 144/45/21 93/46/13 81/47/13
f 84/27/6 85/26/5 31/48/5 29/49/6
f 111/50/22 138/51/23 70/52/24 73/53/25
f 135/54/26 146/55/27 65/56/28 62/36/14
f 101/57/29 140/58/30 63/59/1 53/60/1
f 129/61/31 96/62/32 52/63/1 54/64/1
f 73/53/25 70/52/24 34/65/24 38/66/25
f 81/47/13 93/46/13 49/67/13 26/68/13
f 103/69/33 132/70/33 60/71/2 57/72/2
f 71/73/34 108/74/35 113/75/36 72/76/37
f 68/77/38 35/78/38 36/79/39 69/80/39
f 69/80/39 36/79/39 34/65/24 70/52/24
f 86/81/40 124/82/41 121/83/42 87/84/43
f 130/85/44 55/86/45 56/40/18 126/39/17
f 57/72/2 60/71/2 109/87/46 114/88/46
f 57/89/47 114/90/48 119/91/49 58/92/50
f 55/86/45 125/93/51 123/94/52 56/40/18
f 85/26/5 122/25/4 124/82/41 86/81/40
f 115/95/53 74/96/43 75/97/40 118/98/54
f 54/99/55 120/100/56 125/93/51 55/86/45
f 74/96/43 41/101/43 42/102/40 75/97/40
f 75/97/40 42/102/40 40/103/5 76/104/5
f 60/29/8 132/105/57 137/106/58 61/30/9
f 129/107/59 54/99/55 55/86/45 130/85/44
f 133/108/60 88/109/61 89/110/39 136/111/62
f 142/112/63 69/80/39 70/52/24 138/51/23
f 88/109/61 47/113/61 48/114/39 89/110/39
f 89/110/39 48/114/39 46/115/24 90/116/24
f 91/117/25 50/118/25 51/119/37 92/120/37
f 92/120/37 51/119/37 49/121/34 93/122/34
f 148/123/64 92/120/37 93/122/34 144/124/65
f 141/125/66 68/77/38 69/80/39 142/112/63
f 82/126/67 102/127/68 107/128/69 83/129/70
f 147/130/71 91/117/25 92/120/37 148/123/64
f 62/36/14 65/56/28 139/131/72 110/37/15
f 71/132/13 74/133/13 115/134/73 108/135/73
f 59/41/19 56/40/18 123/94/52 104/136/74
f 106/137/75 58/92/50 59/41/19 104/136/74
f 78/138/70 131/139/76 127/140/77 79/141/6
f 77/142/67 128/143/78 131/139/76 78/138/70
f 61/30/9 137/106/58 135/54/26 62/36/14
f 82/144/79 88/145/79 133/146/80 102/147/80
f 53/60/1 63/59/1 145/148/81 98/149/82
f 103/150/83 57/89/47 58/92/50 106/137/75
f 58/92/50 119/91/49 117/38/16 59/41/19
f 45/151/70 78/138/70 79/141/6 44/152/6
f 43/153/67 77/142/67 78/138/70 45/151/70
f 76/104/5 79/141/6 127/140/77 116/154/84
f 118/98/54 75/97/40 76/104/5 116/154/84
f 39/155/37 72/76/37 73/53/25 38/66/25
f 37/156/34 71/73/34 72/76/37 39/155/37
f 64/157/85 143/158/86 139/131/72 65/56/28
f 63/159/87 140/160/88 143/158/86 64/157/85
f 72/76/37 113/75/36 111/50/22 73/53/25
f 43/161/79 25/162/79 66/163/79 77/164/79
f 27/165/89 35/166/89 68/167/89 67/168/89
f 40/103/5 44/152/6 79/141/6 76/104/5
f 37/169/13 41/170/13 74/133/13 71/132/13
f 28/171/79 47/172/79 88/145/79 82/144/79
f 145/173/90 63/159/87 64/157/85 149/174/91
f 149/174/91 64/157/85 65/56/28 146/55/27
f 90/116/24 91/117/25 147/130/71 134/175/92
f 136/111/62 89/110/39 90/116/24 134/175/92
f 33/176/40 86/81/40 87/84/43 32/177/43
f 31/48/5 85/26/5 86/81/40 33/176/40
f 30/178/70 83/129/70 84/27/6 29/49/6
f 28/179/67 82/126/67 83/129/70 30/178/70
f 67/168/89 68/167/89 141/180/93 100/181/94
f 46/115/24 50/118/25 91/117/25 90/116/24
f 83/129/70 107/128/69 105/24/3 84/27/6
f 77/164/79 66/163/79 97/182/95 128/183/96
f 103/184/83 106/185/75 107/128/69 102/127/68
f 106/185/75 104/186/74 105/24/3 107/128/69
f 143/187/86 140/188/88 141/125/66 142/112/63
f 139/189/72 143/187/86 142/112/63 138/51/23
f 131/139/76 128/143/78 129/190/59 130/191/44
f 121/83/42 124/82/41 125/192/51 120/193/56
f 127/140/77 131/139/76 130/191/44 126/194/17
f 124/82/41 122/25/4 123/195/52 125/192/51
f 109/196/7 112/197/10 113/75/36 108/74/35
f 112/197/10 110/198/15 111/50/22 113/75/36
f 115/95/53 118/98/54 119/199/49 114/200/48
f 118/98/54 116/154/84 117/201/16 119/199/49
f 133/108/60 136/111/62 137/202/58 132/203/57
f 136/111/62 134/175/92 135/204/26 137/202/58
f 149/205/91 146/206/27 147/130/71 148/123/64
f 145/207/90 149/205/91 148/123/64 144/124/65
f 132/208/33 103/209/33 102/147/80 133/146/80
f 104/186/74 123/195/52 122/25/4 105/24/3
f 116/154/84 127/140/77 126/194/17 117/201/16
f 108/135/73 115/134/73 114/210/46 109/211/46
f 120/212/97 95/213/98 94/33/12 121/32/11
f 140/214/30 101/215/29 100/181/94 141/180/93
f 110/198/15 139/189/72 138/51/23 111/50/22
f 134/175/92 147/130/71 146/206/27 135/204/26
f 128/183/96 97/182/95 96/216/32 129/217/31
f 144/45/21 99/44/20 98/218/82 145/219/81
f 54/64/1 52/63/1 95/220/98 120/221/97
