# Blender v2.93.6 OBJ File: 'pizzabox.blend'
# www.blender.org
mtllib pizzabox.mtl
o pizzabox_Plane
v -1.998190 0.025805 1.936473
v 1.998190 0.025805 1.936473
v -1.998190 0.025805 -2.059908
v 1.998190 0.025805 -2.059908
v -1.976190 0.337772 -2.037908
v 1.976190 0.337771 -2.037908
v -1.998190 0.337772 -2.059908
v -1.998190 0.337772 1.936473
v 1.998190 0.337772 1.936473
v 1.998190 0.337772 -2.059908
v -1.976190 1.296060 1.808791
v 1.976190 1.296060 1.808791
v 1.976190 0.296140 -2.027537
v 1.976190 0.099574 -1.703510
v 1.976190 0.201139 -1.982933
v 1.976190 0.130423 -1.905690
v 1.976190 0.094758 -1.807570
v 1.976190 0.928826 1.625218
v 1.976190 1.149604 1.824338
v 1.976190 1.050917 1.789298
v 1.976190 0.973390 1.719376
v -1.976190 1.254429 1.819162
v -1.976190 0.928826 1.625217
v -1.976190 1.149605 1.824338
v -1.976190 1.050918 1.789298
v -1.976190 0.973390 1.719376
v -1.976190 0.296141 -2.027537
v -1.976190 0.099575 -1.703510
v -1.976190 0.201139 -1.982933
v -1.976190 0.130423 -1.905690
v -1.976190 0.094759 -1.807570
v 1.976190 1.254428 1.819162
v 1.708606 0.993344 1.884204
v 1.954239 1.154516 1.844052
v 1.896605 1.069814 1.865154
v 1.810351 1.013218 1.879253
v -1.708606 0.993345 1.884203
v -1.954239 1.154516 1.844052
v -1.896605 1.069815 1.865153
v -1.810351 1.013219 1.879252
v -1.976190 0.047805 1.914473
v 1.976190 0.047805 1.914473
v -1.976190 0.047805 -2.037908
v 1.976190 0.047805 -2.037908
v -1.952477 0.316425 -2.032591
v 1.952477 0.316424 -2.032591
v -1.976190 0.337772 -2.037908
v -1.976190 0.337772 1.914473
v 1.976190 0.337772 1.914473
v 1.976190 0.337772 -2.037908
v -1.952477 1.269395 1.792762
v 1.952477 1.269394 1.792762
v 1.952477 0.296140 -2.027537
v 1.952477 0.099574 -1.703510
v 1.952477 0.201139 -1.982933
v 1.952477 0.130423 -1.905690
v 1.952477 0.094758 -1.807570
v 1.952477 0.928826 1.625218
v 1.952477 1.149604 1.824338
v 1.952477 1.050917 1.789298
v 1.952477 0.973390 1.719376
v -1.952480 1.249110 1.797812
v -1.952477 0.928826 1.625217
v -1.952477 1.149605 1.824338
v -1.952477 1.050918 1.789298
v -1.952477 0.973390 1.719376
v -1.952477 0.296141 -2.027537
v -1.952477 0.099575 -1.703510
v -1.952477 0.201139 -1.982933
v -1.952477 0.130423 -1.905690
v -1.952477 0.094759 -1.807570
v 1.952480 1.249110 1.797812
v 1.708606 0.988027 1.862856
v 1.954239 1.149198 1.822705
v 1.896605 1.064496 1.843806
v 1.810351 1.007900 1.857905
v -1.708606 0.988027 1.862856
v -1.954239 1.149199 1.822705
v -1.896605 1.064497 1.843806
v -1.810351 1.007901 1.857905
v -1.998190 0.025805 -0.061718
v 1.998190 0.025805 -0.061718
v -1.998190 0.337772 -0.061718
v 1.998190 0.337772 -0.061718
v -1.976190 0.047805 -0.061718
v 1.976190 0.047805 -0.061718
v -1.976190 0.337772 -0.061718
v 1.976190 0.337772 -0.061718
v 0.000000 0.025805 1.936473
v 0.000000 0.025805 -2.059908
v 0.000000 0.337772 1.936473
v 0.000000 0.337772 -2.059908
v 0.000000 0.047805 1.914473
v 0.000000 0.047805 -2.037908
v 0.000000 0.337772 1.914473
v 0.000000 0.337772 -2.037908
v 0.000000 0.047805 -0.061718
v 0.000000 0.025805 -0.061718
vt 0.759967 0.694190
vt 0.550279 0.694190
vt 0.550279 0.484502
vt 0.759967 0.484502
vt 0.583017 0.033714
vt 0.999023 0.033714
vt 0.999023 0.448474
vt 0.583017 0.448473
vt 0.001069 0.274022
vt 0.000977 0.064084
vt 0.033696 0.064065
vt 0.033848 0.274025
vt 0.546897 0.273963
vt 0.546988 0.483902
vt 0.514269 0.483920
vt 0.514118 0.273961
vt 0.274004 0.546907
vt 0.064077 0.546988
vt 0.064060 0.514271
vt 0.274008 0.514128
vt 0.273961 0.001079
vt 0.483889 0.000997
vt 0.483906 0.033715
vt 0.273957 0.033857
vt 0.567710 0.036018
vt 0.578515 0.033714
vt 0.550279 0.061794
vt 0.585149 0.463781
vt 0.583017 0.452976
vt 0.611026 0.481211
vt 0.996891 0.018407
vt 0.999023 0.029212
vt 0.971015 0.000977
vt 0.273983 0.273993
vt 0.274005 0.480253
vt 0.067636 0.480388
vt 0.067723 0.274021
vt 0.037449 0.274024
vt 0.037294 0.067662
vt 0.067581 0.067639
vt 0.480243 0.273964
vt 0.510516 0.273961
vt 0.510672 0.480324
vt 0.480384 0.480346
vt 0.274008 0.510526
vt 0.067656 0.510674
vt 0.273961 0.067733
vt 0.273958 0.037459
vt 0.480309 0.037312
vt 0.480330 0.067597
vt 0.236417 0.577437
vt 0.238610 0.577437
vt 0.208181 0.603029
vt 0.136912 0.576145
vt 0.147718 0.574013
vt 0.119482 0.602021
vt 0.191624 0.574799
vt 0.193817 0.574798
vt 0.163389 0.600498
vt 0.080419 0.916496
vt 0.080431 0.931789
vt 0.076968 0.931792
vt 0.076956 0.916499
vt 0.080407 0.901251
vt 0.076944 0.901254
vt 0.080395 0.886039
vt 0.076932 0.886042
vt 0.081698 0.687641
vt 0.078235 0.687644
vt 0.081686 0.672429
vt 0.078223 0.672432
vt 0.081674 0.657184
vt 0.078211 0.657187
vt 0.081662 0.641891
vt 0.078199 0.641894
vt 0.081650 0.626566
vt 0.078187 0.626569
vt 0.089538 0.931866
vt 0.089668 0.947192
vt 0.086205 0.947221
vt 0.086075 0.931896
vt 0.089409 0.916574
vt 0.085946 0.916603
vt 0.089279 0.901329
vt 0.085817 0.901358
vt 0.089150 0.886117
vt 0.085688 0.886146
vt 0.088930 0.687708
vt 0.085467 0.687737
vt 0.088801 0.672496
vt 0.085338 0.672525
vt 0.088672 0.657251
vt 0.085209 0.657280
vt 0.088542 0.641958
vt 0.085079 0.641988
vt 0.089668 0.626674
vt 0.084952 0.626950
vt 0.071826 0.907044
vt 0.071896 0.922596
vt 0.068625 0.922611
vt 0.068555 0.907059
vt 0.071756 0.891564
vt 0.068485 0.891579
vt 0.071686 0.876133
vt 0.068415 0.876148
vt 0.072249 0.688724
vt 0.068978 0.688739
vt 0.072179 0.673294
vt 0.068908 0.673309
vt 0.072108 0.657813
vt 0.068837 0.657828
vt 0.072037 0.642261
vt 0.068767 0.642276
vt 0.073497 0.626677
vt 0.068696 0.626965
vt 0.081698 0.947062
vt 0.076980 0.946829
vt 0.073497 0.938167
vt 0.068694 0.937922
vt 0.483967 0.514230
vt 0.480370 0.510634
vt 0.063998 0.033755
vt 0.067596 0.037352
vt 0.064014 0.000977
vt 0.483951 0.547008
vt 0.969656 0.694190
vt 0.969656 0.484502
vt 0.969656 0.903878
vt 0.759967 0.903878
vt 0.033754 0.483973
vt 0.037350 0.480375
vt 0.514212 0.064013
vt 0.510616 0.067610
vt 0.546988 0.064027
vt 0.000977 0.483958
vt 0.550279 0.903878
vt 0.578514 0.448473
vt 0.550279 0.420393
vt 0.567709 0.446170
vt 0.558549 0.440122
vt 0.552428 0.431070
vt 0.552429 0.051117
vt 0.558549 0.042066
vt 0.999023 0.452976
vt 0.971015 0.481211
vt 0.996891 0.463781
vt 0.990820 0.472941
vt 0.981733 0.479062
vt 0.600307 0.479062
vt 0.591220 0.472941
vt 0.583017 0.029212
vt 0.611025 0.000977
vt 0.585149 0.018407
vt 0.591220 0.009246
vt 0.600307 0.003126
vt 0.981733 0.003126
vt 0.990820 0.009247
vt 0.238610 0.987218
vt 0.208181 0.961627
vt 0.236417 0.987219
vt 0.225611 0.987403
vt 0.216451 0.981355
vt 0.210331 0.972304
vt 0.210330 0.592352
vt 0.216451 0.583301
vt 0.225611 0.577253
vt 0.149911 0.574013
vt 0.149911 0.987710
vt 0.147718 0.987709
vt 0.119482 0.962010
vt 0.136913 0.987886
vt 0.127752 0.981815
vt 0.121632 0.972728
vt 0.121632 0.591303
vt 0.127752 0.582217
vt 0.193817 0.988495
vt 0.163388 0.960486
vt 0.191624 0.988495
vt 0.180818 0.986363
vt 0.171658 0.980291
vt 0.165538 0.971205
vt 0.165538 0.589780
vt 0.171658 0.580693
vt 0.180819 0.574622
vn 0.0000 -1.0000 0.0000
vn 0.0000 0.9703 -0.2417
vn 0.0000 0.0000 -1.0000
vn 0.0000 -0.0000 1.0000
vn 1.0000 -0.0000 0.0000
vn -1.0000 -0.0000 0.0000
vn -0.0000 0.2417 0.9703
vn 0.0000 1.0000 0.0000
vn -0.3308 -0.2594 -0.9073
vn 0.0001 -0.2417 -0.9704
vn 0.0000 -0.2417 -0.9703
vn -0.9374 0.0533 0.3441
vn -1.0000 -0.0000 0.0001
vn 0.0000 -0.5120 0.8590
vn -0.2212 -0.1030 0.9698
vn -0.7402 -0.0710 0.6686
vn 0.0000 -0.8024 0.5968
vn 0.0000 -0.9417 0.3364
vn 0.0000 -0.9895 0.1447
vn 0.0000 -0.9886 -0.1506
vn 0.0000 -0.8551 -0.5184
vn 0.0000 -0.5925 -0.8055
vn 0.0000 -0.4250 -0.9052
vn 0.2212 -0.1030 0.9698
vn 0.7402 -0.0710 0.6686
vn 0.4195 0.1392 0.8970
vn 0.9374 0.0533 0.3441
vn -0.7110 -0.6823 0.1700
vn -0.9073 -0.3882 -0.1615
vn -0.6166 -0.4047 -0.6752
vn -0.3863 -0.8950 0.2229
vn -0.0992 -0.9656 0.2405
vn 0.0992 -0.9656 0.2405
vn 0.3863 -0.8950 0.2229
vn 0.7110 -0.6823 0.1700
vn 0.9073 -0.3882 -0.1615
vn 0.6166 -0.4047 -0.6752
vn 0.8771 -0.1977 -0.4378
vn 0.3308 -0.2594 -0.9073
vn -0.4195 0.1392 0.8970
vn -0.8771 -0.1977 -0.4378
vn -0.0001 -0.2417 -0.9704
vn 0.0000 -0.2418 -0.9703
vn 1.0000 -0.0000 0.0001
usemtl M_pizzabox
s 1
f 98/1/1 90/2/1 4/3/1 82/4/1
f 12/5/2 6/6/2 5/7/2 11/8/2
f 90/9/3 3/10/3 7/11/3 92/12/3
f 89/13/4 2/14/4 9/15/4 91/16/4
f 82/17/5 4/18/5 10/19/5 84/20/5
f 81/21/6 1/22/6 8/23/6 83/24/6
f 34/25/7 32/26/7 33/27/7
f 24/28/6 22/29/6 23/30/6
f 15/31/5 13/32/5 14/33/5
f 97/34/8 86/35/8 44/36/8 94/37/8
f 94/37/4 96/38/4 47/39/4 43/40/4
f 93/41/3 95/42/3 49/43/3 42/44/3
f 86/35/6 88/45/6 50/46/6 44/36/6
f 85/47/5 87/48/5 48/49/5 41/50/5
f 62/51/9 51/52/10 77/53/11
f 69/54/5 67/55/5 68/56/5
f 72/57/12 52/58/13 58/59/6
f 83/24/8 8/23/8 48/49/8 87/48/8
f 91/16/8 9/15/8 49/43/8 95/42/8
f 84/20/8 10/19/8 50/46/8 88/45/8
f 92/12/8 7/11/8 47/39/8 96/38/8
f 20/60/14 19/61/15 59/62/16 60/63/14
f 21/64/17 20/60/14 60/63/14 61/65/17
f 18/66/18 21/64/17 61/65/17 58/67/18
f 14/68/19 18/66/18 58/67/18 54/69/19
f 17/70/20 14/68/19 54/69/19 57/71/20
f 16/72/21 17/70/20 57/71/20 56/73/21
f 15/74/22 16/72/21 56/73/21 55/75/22
f 13/76/23 15/74/22 55/75/22 53/77/23
f 29/78/22 27/79/23 67/80/23 69/81/22
f 30/82/21 29/78/22 69/81/22 70/83/21
f 31/84/20 30/82/21 70/83/21 71/85/20
f 28/86/19 31/84/20 71/85/20 68/87/19
f 23/88/18 28/86/19 68/87/19 63/89/18
f 26/90/17 23/88/18 63/89/18 66/91/17
f 25/92/14 26/90/17 66/91/17 65/93/14
f 24/94/24 25/92/14 65/93/14 64/95/25
f 22/96/26 24/94/24 64/95/25 62/97/27
f 39/98/28 38/99/29 78/100/30 79/101/28
f 40/102/31 39/98/28 79/101/28 80/103/31
f 37/104/32 40/102/31 80/103/31 77/105/32
f 33/106/33 37/104/32 77/105/32 73/107/33
f 36/108/34 33/106/33 73/107/33 76/109/34
f 35/110/35 36/108/34 76/109/34 75/111/35
f 34/112/36 35/110/35 75/111/35 74/113/37
f 32/114/38 34/112/36 74/113/37 72/115/39
f 19/61/15 32/116/40 72/117/12 59/62/16
f 38/99/29 22/118/41 62/119/9 78/100/30
f 9/120/8 84/20/8 88/45/8 49/121/8
f 7/122/8 83/24/8 87/48/8 47/123/8
f 43/40/5 47/123/5 87/48/5 85/47/5
f 42/44/6 49/121/6 88/45/6 86/35/6
f 93/41/8 42/44/8 86/35/8 97/34/8
f 3/124/6 81/21/6 83/24/6 7/122/6
f 2/125/5 82/17/5 84/20/5 9/120/5
f 89/126/1 98/1/1 82/4/1 2/127/1
f 1/128/1 81/129/1 98/1/1 89/126/1
f 41/50/8 93/41/8 97/34/8 85/47/8
f 10/130/8 92/12/8 96/38/8 50/131/8
f 8/132/8 91/16/8 95/42/8 48/133/8
f 41/50/3 48/133/3 95/42/3 93/41/3
f 44/36/4 50/131/4 96/38/4 94/37/4
f 85/47/8 97/34/8 94/37/8 43/40/8
f 1/134/4 89/13/4 91/16/4 8/132/4
f 4/135/3 90/9/3 92/12/3 10/130/3
f 81/129/1 3/136/1 90/2/1 98/1/1
f 32/26/7 12/5/7 33/27/7
f 12/5/7 11/8/7 33/27/7
f 11/8/7 22/137/7 37/138/7
f 22/137/7 38/139/7 37/138/7
f 38/139/7 39/140/7 37/138/7
f 39/140/7 40/141/7 37/138/7
f 37/138/7 33/27/7 11/8/7
f 33/27/7 36/142/7 35/143/7
f 35/143/7 34/25/7 33/27/7
f 22/29/6 11/8/6 23/30/6
f 11/8/6 5/7/6 23/30/6
f 5/7/6 27/144/6 28/145/6
f 27/144/6 29/146/6 28/145/6
f 29/146/6 30/147/6 28/145/6
f 30/147/6 31/148/6 28/145/6
f 28/145/6 23/30/6 5/7/6
f 23/30/6 26/149/6 25/150/6
f 25/150/6 24/28/6 23/30/6
f 13/32/5 6/6/5 14/33/5
f 6/6/5 12/5/5 14/33/5
f 12/5/5 32/151/5 18/152/5
f 32/151/5 19/153/5 18/152/5
f 19/153/5 20/154/5 18/152/5
f 20/154/5 21/155/5 18/152/5
f 18/152/5 14/33/5 12/5/5
f 14/33/5 17/156/5 16/157/5
f 16/157/5 15/31/5 14/33/5
f 51/52/10 52/158/42 73/159/11
f 52/158/42 72/160/39 73/159/11
f 72/160/39 74/161/37 75/162/43
f 75/162/43 76/163/11 72/160/39
f 76/163/11 73/159/11 72/160/39
f 73/159/11 77/53/11 51/52/10
f 77/53/11 80/164/11 62/51/9
f 80/164/11 79/165/43 62/51/9
f 79/165/43 78/166/30 62/51/9
f 45/167/5 51/168/44 68/56/5
f 51/168/44 62/169/27 63/170/5
f 62/169/27 64/171/25 65/172/5
f 65/172/5 66/173/5 62/169/27
f 66/173/5 63/170/5 62/169/27
f 63/170/5 68/56/5 51/168/44
f 68/56/5 71/174/5 70/175/5
f 45/167/5 68/56/5 67/55/5
f 70/175/5 69/54/5 68/56/5
f 52/58/13 46/176/6 54/177/6
f 46/176/6 53/178/6 54/177/6
f 53/178/6 55/179/6 54/177/6
f 55/179/6 56/180/6 54/177/6
f 56/180/6 57/181/6 54/177/6
f 54/177/6 58/59/6 52/58/13
f 58/59/6 61/182/6 72/57/12
f 61/182/6 60/183/6 72/57/12
f 60/183/6 59/184/16 72/57/12
