# Blender v3.0.0 OBJ File: 'Room_render.blend'
# www.blender.org
mtllib ceiling.mtl
o ceiling_Plane.007
v 6.576817 3.837336 3.180691
v 5.715021 3.837336 3.180691
v 6.576817 3.837336 -2.129606
v 5.715020 3.837336 -2.129605
v 6.350435 3.837336 3.180690
v 12.896278 3.837334 -3.709891
v 6.628143 3.837337 4.178791
v 6.350436 3.837337 4.192010
v 12.896276 3.837334 2.717783
v 12.896276 3.837334 -2.563382
v 12.909498 3.837334 4.192010
v 6.576817 3.837336 -4.793696
v 12.909498 3.837334 -4.793697
v 6.576817 3.837336 0.525543
v 5.728241 3.837336 0.525543
v 6.363657 3.837336 0.525543
v 12.896276 3.837334 1.180854
v 5.970025 3.837336 3.167470
v 6.083215 3.837336 -2.116385
v 6.036633 3.837336 0.525543
v 6.590037 3.837336 -3.524355
v 9.749767 3.837335 -3.493003
v 7.982800 3.837336 4.178789
v 9.081057 3.837335 3.180691
v 9.743157 3.837335 -2.129606
v 9.743156 3.837335 -4.780477
v 9.397400 3.837335 0.525543
v 6.363657 3.837337 3.749053
v 6.602480 3.837336 3.679741
v 8.862978 3.837335 3.679740
vt 0.408032 0.764866
vt 0.702048 0.759683
vt 0.703519 0.800659
vt 0.408032 0.799186
vt 0.408033 0.704750
vt 0.703519 0.704751
vt 0.408033 0.728472
vt 0.049296 0.728471
vt 0.000000 0.729942
vt 0.001471 0.699037
vt 0.057009 0.701893
vt 0.057010 0.450328
vt 0.000001 0.000001
vt 0.164064 0.001472
vt 0.112548 0.426058
vt 0.408033 0.390854
vt 0.335105 0.001472
vt 0.751793 0.001471
vt 0.703519 0.352375
vt 0.855249 0.351640
vt 0.998529 0.352375
vt 1.000000 0.704751
vt 0.858738 0.703279
vt 0.112547 0.704749
vt 0.112547 0.729943
vt 0.114018 0.772278
vt 0.112547 0.800657
vt 0.879386 0.001471
vt 1.000000 0.000000
vt 0.001472 0.548281
vn 0.0000 1.0000 -0.0000
usemtl M_ceiling
s off
f 20/1/1 19/2/1 4/3/1 15/4/1
f 14/5/1 3/6/1 16/7/1
f 28/8/1 8/9/1 7/10/1 29/11/1
f 30/12/1 11/13/1 9/14/1 24/15/1
f 27/16/1 17/17/1 10/18/1 25/19/1
f 22/20/1 26/21/1 12/22/1 21/23/1
f 24/15/1 9/14/1 17/17/1 27/16/1
f 1/24/1 14/5/1 16/7/1 5/25/1
f 18/26/1 20/1/1 15/4/1 2/27/1
f 5/25/1 16/7/1 20/1/1 18/26/1
f 16/7/1 3/6/1 19/2/1 20/1/1
f 25/19/1 22/20/1 21/23/1 3/6/1
f 10/18/1 6/28/1 22/20/1 25/19/1
f 1/24/1 24/15/1 27/16/1 14/5/1
f 6/28/1 13/29/1 26/21/1 22/20/1
f 14/5/1 27/16/1 25/19/1 3/6/1
f 29/11/1 30/12/1 24/15/1 1/24/1
f 7/10/1 23/30/1 30/12/1 29/11/1
f 23/30/1 11/13/1 30/12/1
f 5/25/1 28/8/1 29/11/1 1/24/1
